solid chassis_body
  facet normal 0.000000 0.000000 -1.000000
    outer loop
      vertex -0.750000 -0.450000 -0.200000
      vertex 0.750000 0.450000 -0.200000
      vertex 0.750000 -0.450000 -0.200000
    endloop
  endfacet
  facet normal 0.000000 0.000000 -1.000000
    outer loop
      vertex -0.750000 -0.450000 -0.200000
      vertex -0.750000 0.450000 -0.200000
      vertex 0.750000 0.450000 -0.200000
    endloop
  endfacet
  facet normal 0.000000 0.000000 1.000000
    outer loop
      vertex -0.750000 -0.450000 0.200000
      vertex 0.750000 -0.450000 0.200000
      vertex 0.750000 0.450000 0.200000
    endloop
  endfacet
  facet normal 0.000000 0.000000 1.000000
    outer loop
      vertex -0.750000 -0.450000 0.200000
      vertex 0.750000 0.450000 0.200000
      vertex -0.750000 0.450000 0.200000
    endloop
  endfacet
  facet normal 0.000000 -1.000000 0.000000
    outer loop
      vertex -0.750000 -0.450000 -0.200000
      vertex 0.750000 -0.450000 -0.200000
      vertex 0.750000 -0.450000 0.200000
    endloop
  endfacet
  facet normal 0.000000 -1.000000 0.000000
    outer loop
      vertex -0.750000 -0.450000 -0.200000
      vertex 0.750000 -0.450000 0.200000
      vertex -0.750000 -0.450000 0.200000
    endloop
  endfacet
  facet normal 0.000000 1.000000 0.000000
    outer loop
      vertex 0.750000 0.450000 -0.200000
      vertex -0.750000 0.450000 -0.200000
      vertex -0.750000 0.450000 0.200000
    endloop
  endfacet
  facet normal 0.000000 1.000000 -0.000000
    outer loop
      vertex 0.750000 0.450000 -0.200000
      vertex -0.750000 0.450000 0.200000
      vertex 0.750000 0.450000 0.200000
    endloop
  endfacet
  facet normal -1.000000 0.000000 0.000000
    outer loop
      vertex -0.750000 0.450000 -0.200000
      vertex -0.750000 -0.450000 -0.200000
      vertex -0.750000 -0.450000 0.200000
    endloop
  endfacet
  facet normal -1.000000 0.000000 0.000000
    outer loop
      vertex -0.750000 0.450000 -0.200000
      vertex -0.750000 -0.450000 0.200000
      vertex -0.750000 0.450000 0.200000
    endloop
  endfacet
  facet normal 1.000000 0.000000 0.000000
    outer loop
      vertex 0.750000 -0.450000 -0.200000
      vertex 0.750000 0.450000 -0.200000
      vertex 0.750000 0.450000 0.200000
    endloop
  endfacet
  facet normal 1.000000 0.000000 0.000000
    outer loop
      vertex 0.750000 -0.450000 -0.200000
      vertex 0.750000 0.450000 0.200000
      vertex 0.750000 -0.450000 0.200000
    endloop
  endfacet
endsolid chassis_body
