solid lga_antenna
  facet normal 0.000000 0.000000 1.000000
    outer loop
      vertex 0.000000 0.000000 0.025000
      vertex 0.100000 0.000000 0.025000
      vertex 0.092388 0.038268 0.025000
    endloop
  endfacet
  facet normal 0.000000 0.000000 -1.000000
    outer loop
      vertex 0.000000 0.000000 -0.025000
      vertex 0.092388 0.038268 -0.025000
      vertex 0.100000 0.000000 -0.025000
    endloop
  endfacet
  facet normal -0.980785 -0.195090 0.000000
    outer loop
      vertex 0.100000 0.000000 -0.025000
      vertex 0.100000 0.000000 0.025000
      vertex 0.092388 0.038268 0.025000
    endloop
  endfacet
  facet normal -0.980785 -0.195090 0.000000
    outer loop
      vertex 0.100000 0.000000 -0.025000
      vertex 0.092388 0.038268 0.025000
      vertex 0.092388 0.038268 -0.025000
    endloop
  endfacet
  facet normal 0.000000 0.000000 1.000000
    outer loop
      vertex 0.000000 0.000000 0.025000
      vertex 0.092388 0.038268 0.025000
      vertex 0.070711 0.070711 0.025000
    endloop
  endfacet
  facet normal 0.000000 0.000000 -1.000000
    outer loop
      vertex 0.000000 0.000000 -0.025000
      vertex 0.070711 0.070711 -0.025000
      vertex 0.092388 0.038268 -0.025000
    endloop
  endfacet
  facet normal -0.831470 -0.555570 0.000000
    outer loop
      vertex 0.092388 0.038268 -0.025000
      vertex 0.092388 0.038268 0.025000
      vertex 0.070711 0.070711 0.025000
    endloop
  endfacet
  facet normal -0.831470 -0.555570 0.000000
    outer loop
      vertex 0.092388 0.038268 -0.025000
      vertex 0.070711 0.070711 0.025000
      vertex 0.070711 0.070711 -0.025000
    endloop
  endfacet
  facet normal 0.000000 0.000000 1.000000
    outer loop
      vertex 0.000000 0.000000 0.025000
      vertex 0.070711 0.070711 0.025000
      vertex 0.038268 0.092388 0.025000
    endloop
  endfacet
  facet normal 0.000000 0.000000 -1.000000
    outer loop
      vertex 0.000000 0.000000 -0.025000
      vertex 0.038268 0.092388 -0.025000
      vertex 0.070711 0.070711 -0.025000
    endloop
  endfacet
  facet normal -0.555570 -0.831470 0.000000
    outer loop
      vertex 0.070711 0.070711 -0.025000
      vertex 0.070711 0.070711 0.025000
      vertex 0.038268 0.092388 0.025000
    endloop
  endfacet
  facet normal -0.555570 -0.831470 0.000000
    outer loop
      vertex 0.070711 0.070711 -0.025000
      vertex 0.038268 0.092388 0.025000
      vertex 0.038268 0.092388 -0.025000
    endloop
  endfacet
  facet normal 0.000000 0.000000 1.000000
    outer loop
      vertex 0.000000 0.000000 0.025000
      vertex 0.038268 0.092388 0.025000
      vertex 0.000000 0.100000 0.025000
    endloop
  endfacet
  facet normal 0.000000 0.000000 -1.000000
    outer loop
      vertex 0.000000 0.000000 -0.025000
      vertex 0.000000 0.100000 -0.025000
      vertex 0.038268 0.092388 -0.025000
    endloop
  endfacet
  facet normal -0.195090 -0.980785 0.000000
    outer loop
      vertex 0.038268 0.092388 -0.025000
      vertex 0.038268 0.092388 0.025000
      vertex 0.000000 0.100000 0.025000
    endloop
  endfacet
  facet normal -0.195090 -0.980785 0.000000
    outer loop
      vertex 0.038268 0.092388 -0.025000
      vertex 0.000000 0.100000 0.025000
      vertex 0.000000 0.100000 -0.025000
    endloop
  endfacet
  facet normal 0.000000 -0.000000 1.000000
    outer loop
      vertex 0.000000 0.000000 0.025000
      vertex 0.000000 0.100000 0.025000
      vertex -0.038268 0.092388 0.025000
    endloop
  endfacet
  facet normal 0.000000 0.000000 -1.000000
    outer loop
      vertex 0.000000 0.000000 -0.025000
      vertex -0.038268 0.092388 -0.025000
      vertex 0.000000 0.100000 -0.025000
    endloop
  endfacet
  facet normal 0.195090 -0.980785 0.000000
    outer loop
      vertex 0.000000 0.100000 -0.025000
      vertex 0.000000 0.100000 0.025000
      vertex -0.038268 0.092388 0.025000
    endloop
  endfacet
  facet normal 0.195090 -0.980785 0.000000
    outer loop
      vertex 0.000000 0.100000 -0.025000
      vertex -0.038268 0.092388 0.025000
      vertex -0.038268 0.092388 -0.025000
    endloop
  endfacet
  facet normal 0.000000 0.000000 1.000000
    outer loop
      vertex 0.000000 0.000000 0.025000
      vertex -0.038268 0.092388 0.025000
      vertex -0.070711 0.070711 0.025000
    endloop
  endfacet
  facet normal 0.000000 0.000000 -1.000000
    outer loop
      vertex 0.000000 0.000000 -0.025000
      vertex -0.070711 0.070711 -0.025000
      vertex -0.038268 0.092388 -0.025000
    endloop
  endfacet
  facet normal 0.555570 -0.831470 0.000000
    outer loop
      vertex -0.038268 0.092388 -0.025000
      vertex -0.038268 0.092388 0.025000
      vertex -0.070711 0.070711 0.025000
    endloop
  endfacet
  facet normal 0.555570 -0.831470 0.000000
    outer loop
      vertex -0.038268 0.092388 -0.025000
      vertex -0.070711 0.070711 0.025000
      vertex -0.070711 0.070711 -0.025000
    endloop
  endfacet
  facet normal 0.000000 0.000000 1.000000
    outer loop
      vertex 0.000000 0.000000 0.025000
      vertex -0.070711 0.070711 0.025000
      vertex -0.092388 0.038268 0.025000
    endloop
  endfacet
  facet normal 0.000000 0.000000 -1.000000
    outer loop
      vertex 0.000000 0.000000 -0.025000
      vertex -0.092388 0.038268 -0.025000
      vertex -0.070711 0.070711 -0.025000
    endloop
  endfacet
  facet normal 0.831470 -0.555570 0.000000
    outer loop
      vertex -0.070711 0.070711 -0.025000
      vertex -0.070711 0.070711 0.025000
      vertex -0.092388 0.038268 0.025000
    endloop
  endfacet
  facet normal 0.831470 -0.555570 0.000000
    outer loop
      vertex -0.070711 0.070711 -0.025000
      vertex -0.092388 0.038268 0.025000
      vertex -0.092388 0.038268 -0.025000
    endloop
  endfacet
  facet normal 0.000000 0.000000 1.000000
    outer loop
      vertex 0.000000 0.000000 0.025000
      vertex -0.092388 0.038268 0.025000
      vertex -0.100000 0.000000 0.025000
    endloop
  endfacet
  facet normal 0.000000 0.000000 -1.000000
    outer loop
      vertex 0.000000 0.000000 -0.025000
      vertex -0.100000 0.000000 -0.025000
      vertex -0.092388 0.038268 -0.025000
    endloop
  endfacet
  facet normal 0.980785 -0.195090 0.000000
    outer loop
      vertex -0.092388 0.038268 -0.025000
      vertex -0.092388 0.038268 0.025000
      vertex -0.100000 0.000000 0.025000
    endloop
  endfacet
  facet normal 0.980785 -0.195090 0.000000
    outer loop
      vertex -0.092388 0.038268 -0.025000
      vertex -0.100000 0.000000 0.025000
      vertex -0.100000 0.000000 -0.025000
    endloop
  endfacet
  facet normal 0.000000 0.000000 1.000000
    outer loop
      vertex 0.000000 0.000000 0.025000
      vertex -0.100000 0.000000 0.025000
      vertex -0.092388 -0.038268 0.025000
    endloop
  endfacet
  facet normal -0.000000 0.000000 -1.000000
    outer loop
      vertex 0.000000 0.000000 -0.025000
      vertex -0.092388 -0.038268 -0.025000
      vertex -0.100000 0.000000 -0.025000
    endloop
  endfacet
  facet normal 0.980785 0.195090 -0.000000
    outer loop
      vertex -0.100000 0.000000 -0.025000
      vertex -0.100000 0.000000 0.025000
      vertex -0.092388 -0.038268 0.025000
    endloop
  endfacet
  facet normal 0.980785 0.195090 0.000000
    outer loop
      vertex -0.100000 0.000000 -0.025000
      vertex -0.092388 -0.038268 0.025000
      vertex -0.092388 -0.038268 -0.025000
    endloop
  endfacet
  facet normal 0.000000 0.000000 1.000000
    outer loop
      vertex 0.000000 0.000000 0.025000
      vertex -0.092388 -0.038268 0.025000
      vertex -0.070711 -0.070711 0.025000
    endloop
  endfacet
  facet normal 0.000000 0.000000 -1.000000
    outer loop
      vertex 0.000000 0.000000 -0.025000
      vertex -0.070711 -0.070711 -0.025000
      vertex -0.092388 -0.038268 -0.025000
    endloop
  endfacet
  facet normal 0.831470 0.555570 -0.000000
    outer loop
      vertex -0.092388 -0.038268 -0.025000
      vertex -0.092388 -0.038268 0.025000
      vertex -0.070711 -0.070711 0.025000
    endloop
  endfacet
  facet normal 0.831470 0.555570 0.000000
    outer loop
      vertex -0.092388 -0.038268 -0.025000
      vertex -0.070711 -0.070711 0.025000
      vertex -0.070711 -0.070711 -0.025000
    endloop
  endfacet
  facet normal 0.000000 0.000000 1.000000
    outer loop
      vertex 0.000000 0.000000 0.025000
      vertex -0.070711 -0.070711 0.025000
      vertex -0.038268 -0.092388 0.025000
    endloop
  endfacet
  facet normal 0.000000 0.000000 -1.000000
    outer loop
      vertex 0.000000 0.000000 -0.025000
      vertex -0.038268 -0.092388 -0.025000
      vertex -0.070711 -0.070711 -0.025000
    endloop
  endfacet
  facet normal 0.555570 0.831470 -0.000000
    outer loop
      vertex -0.070711 -0.070711 -0.025000
      vertex -0.070711 -0.070711 0.025000
      vertex -0.038268 -0.092388 0.025000
    endloop
  endfacet
  facet normal 0.555570 0.831470 0.000000
    outer loop
      vertex -0.070711 -0.070711 -0.025000
      vertex -0.038268 -0.092388 0.025000
      vertex -0.038268 -0.092388 -0.025000
    endloop
  endfacet
  facet normal 0.000000 0.000000 1.000000
    outer loop
      vertex 0.000000 0.000000 0.025000
      vertex -0.038268 -0.092388 0.025000
      vertex -0.000000 -0.100000 0.025000
    endloop
  endfacet
  facet normal 0.000000 0.000000 -1.000000
    outer loop
      vertex 0.000000 0.000000 -0.025000
      vertex -0.000000 -0.100000 -0.025000
      vertex -0.038268 -0.092388 -0.025000
    endloop
  endfacet
  facet normal 0.195090 0.980785 -0.000000
    outer loop
      vertex -0.038268 -0.092388 -0.025000
      vertex -0.038268 -0.092388 0.025000
      vertex -0.000000 -0.100000 0.025000
    endloop
  endfacet
  facet normal 0.195090 0.980785 0.000000
    outer loop
      vertex -0.038268 -0.092388 -0.025000
      vertex -0.000000 -0.100000 0.025000
      vertex -0.000000 -0.100000 -0.025000
    endloop
  endfacet
  facet normal 0.000000 0.000000 1.000000
    outer loop
      vertex 0.000000 0.000000 0.025000
      vertex -0.000000 -0.100000 0.025000
      vertex 0.038268 -0.092388 0.025000
    endloop
  endfacet
  facet normal 0.000000 -0.000000 -1.000000
    outer loop
      vertex 0.000000 0.000000 -0.025000
      vertex 0.038268 -0.092388 -0.025000
      vertex -0.000000 -0.100000 -0.025000
    endloop
  endfacet
  facet normal -0.195090 0.980785 0.000000
    outer loop
      vertex -0.000000 -0.100000 -0.025000
      vertex -0.000000 -0.100000 0.025000
      vertex 0.038268 -0.092388 0.025000
    endloop
  endfacet
  facet normal -0.195090 0.980785 0.000000
    outer loop
      vertex -0.000000 -0.100000 -0.025000
      vertex 0.038268 -0.092388 0.025000
      vertex 0.038268 -0.092388 -0.025000
    endloop
  endfacet
  facet normal 0.000000 0.000000 1.000000
    outer loop
      vertex 0.000000 0.000000 0.025000
      vertex 0.038268 -0.092388 0.025000
      vertex 0.070711 -0.070711 0.025000
    endloop
  endfacet
  facet normal 0.000000 0.000000 -1.000000
    outer loop
      vertex 0.000000 0.000000 -0.025000
      vertex 0.070711 -0.070711 -0.025000
      vertex 0.038268 -0.092388 -0.025000
    endloop
  endfacet
  facet normal -0.555570 0.831470 0.000000
    outer loop
      vertex 0.038268 -0.092388 -0.025000
      vertex 0.038268 -0.092388 0.025000
      vertex 0.070711 -0.070711 0.025000
    endloop
  endfacet
  facet normal -0.555570 0.831470 0.000000
    outer loop
      vertex 0.038268 -0.092388 -0.025000
      vertex 0.070711 -0.070711 0.025000
      vertex 0.070711 -0.070711 -0.025000
    endloop
  endfacet
  facet normal 0.000000 0.000000 1.000000
    outer loop
      vertex 0.000000 0.000000 0.025000
      vertex 0.070711 -0.070711 0.025000
      vertex 0.092388 -0.038268 0.025000
    endloop
  endfacet
  facet normal 0.000000 0.000000 -1.000000
    outer loop
      vertex 0.000000 0.000000 -0.025000
      vertex 0.092388 -0.038268 -0.025000
      vertex 0.070711 -0.070711 -0.025000
    endloop
  endfacet
  facet normal -0.831470 0.555570 0.000000
    outer loop
      vertex 0.070711 -0.070711 -0.025000
      vertex 0.070711 -0.070711 0.025000
      vertex 0.092388 -0.038268 0.025000
    endloop
  endfacet
  facet normal -0.831470 0.555570 0.000000
    outer loop
      vertex 0.070711 -0.070711 -0.025000
      vertex 0.092388 -0.038268 0.025000
      vertex 0.092388 -0.038268 -0.025000
    endloop
  endfacet
  facet normal -0.000000 0.000000 1.000000
    outer loop
      vertex 0.000000 0.000000 0.025000
      vertex 0.092388 -0.038268 0.025000
      vertex 0.100000 0.000000 0.025000
    endloop
  endfacet
  facet normal 0.000000 0.000000 -1.000000
    outer loop
      vertex 0.000000 0.000000 -0.025000
      vertex 0.100000 0.000000 -0.025000
      vertex 0.092388 -0.038268 -0.025000
    endloop
  endfacet
  facet normal -0.980785 0.195090 0.000000
    outer loop
      vertex 0.092388 -0.038268 -0.025000
      vertex 0.092388 -0.038268 0.025000
      vertex 0.100000 0.000000 0.025000
    endloop
  endfacet
  facet normal -0.980785 0.195090 0.000000
    outer loop
      vertex 0.092388 -0.038268 -0.025000
      vertex 0.100000 0.000000 0.025000
      vertex 0.100000 0.000000 -0.025000
    endloop
  endfacet
endsolid lga_antenna
