solid solar_array_panel
  facet normal 0.000000 0.000000 -1.000000
    outer loop
      vertex -0.600000 -0.400000 -0.005000
      vertex 0.600000 0.400000 -0.005000
      vertex 0.600000 -0.400000 -0.005000
    endloop
  endfacet
  facet normal 0.000000 0.000000 -1.000000
    outer loop
      vertex -0.600000 -0.400000 -0.005000
      vertex -0.600000 0.400000 -0.005000
      vertex 0.600000 0.400000 -0.005000
    endloop
  endfacet
  facet normal 0.000000 0.000000 1.000000
    outer loop
      vertex -0.600000 -0.400000 0.005000
      vertex 0.600000 -0.400000 0.005000
      vertex 0.600000 0.400000 0.005000
    endloop
  endfacet
  facet normal 0.000000 0.000000 1.000000
    outer loop
      vertex -0.600000 -0.400000 0.005000
      vertex 0.600000 0.400000 0.005000
      vertex -0.600000 0.400000 0.005000
    endloop
  endfacet
  facet normal 0.000000 -1.000000 0.000000
    outer loop
      vertex -0.600000 -0.400000 -0.005000
      vertex 0.600000 -0.400000 -0.005000
      vertex 0.600000 -0.400000 0.005000
    endloop
  endfacet
  facet normal 0.000000 -1.000000 0.000000
    outer loop
      vertex -0.600000 -0.400000 -0.005000
      vertex 0.600000 -0.400000 0.005000
      vertex -0.600000 -0.400000 0.005000
    endloop
  endfacet
  facet normal 0.000000 1.000000 0.000000
    outer loop
      vertex 0.600000 0.400000 -0.005000
      vertex -0.600000 0.400000 -0.005000
      vertex -0.600000 0.400000 0.005000
    endloop
  endfacet
  facet normal 0.000000 1.000000 -0.000000
    outer loop
      vertex 0.600000 0.400000 -0.005000
      vertex -0.600000 0.400000 0.005000
      vertex 0.600000 0.400000 0.005000
    endloop
  endfacet
  facet normal -1.000000 0.000000 0.000000
    outer loop
      vertex -0.600000 0.400000 -0.005000
      vertex -0.600000 -0.400000 -0.005000
      vertex -0.600000 -0.400000 0.005000
    endloop
  endfacet
  facet normal -1.000000 0.000000 0.000000
    outer loop
      vertex -0.600000 0.400000 -0.005000
      vertex -0.600000 -0.400000 0.005000
      vertex -0.600000 0.400000 0.005000
    endloop
  endfacet
  facet normal 1.000000 0.000000 0.000000
    outer loop
      vertex 0.600000 -0.400000 -0.005000
      vertex 0.600000 0.400000 -0.005000
      vertex 0.600000 0.400000 0.005000
    endloop
  endfacet
  facet normal 1.000000 0.000000 0.000000
    outer loop
      vertex 0.600000 -0.400000 -0.005000
      vertex 0.600000 0.400000 0.005000
      vertex 0.600000 -0.400000 0.005000
    endloop
  endfacet
endsolid solar_array_panel
