solid bogie_arm_left
  facet normal 0.000000 0.000000 -1.000000
    outer loop
      vertex -0.250000 -0.035000 -0.025000
      vertex 0.250000 0.035000 -0.025000
      vertex 0.250000 -0.035000 -0.025000
    endloop
  endfacet
  facet normal 0.000000 0.000000 -1.000000
    outer loop
      vertex -0.250000 -0.035000 -0.025000
      vertex -0.250000 0.035000 -0.025000
      vertex 0.250000 0.035000 -0.025000
    endloop
  endfacet
  facet normal 0.000000 0.000000 1.000000
    outer loop
      vertex -0.250000 -0.035000 0.025000
      vertex 0.250000 -0.035000 0.025000
      vertex 0.250000 0.035000 0.025000
    endloop
  endfacet
  facet normal 0.000000 0.000000 1.000000
    outer loop
      vertex -0.250000 -0.035000 0.025000
      vertex 0.250000 0.035000 0.025000
      vertex -0.250000 0.035000 0.025000
    endloop
  endfacet
  facet normal 0.000000 -1.000000 0.000000
    outer loop
      vertex -0.250000 -0.035000 -0.025000
      vertex 0.250000 -0.035000 -0.025000
      vertex 0.250000 -0.035000 0.025000
    endloop
  endfacet
  facet normal 0.000000 -1.000000 0.000000
    outer loop
      vertex -0.250000 -0.035000 -0.025000
      vertex 0.250000 -0.035000 0.025000
      vertex -0.250000 -0.035000 0.025000
    endloop
  endfacet
  facet normal 0.000000 1.000000 0.000000
    outer loop
      vertex 0.250000 0.035000 -0.025000
      vertex -0.250000 0.035000 -0.025000
      vertex -0.250000 0.035000 0.025000
    endloop
  endfacet
  facet normal 0.000000 1.000000 -0.000000
    outer loop
      vertex 0.250000 0.035000 -0.025000
      vertex -0.250000 0.035000 0.025000
      vertex 0.250000 0.035000 0.025000
    endloop
  endfacet
  facet normal -1.000000 0.000000 0.000000
    outer loop
      vertex -0.250000 0.035000 -0.025000
      vertex -0.250000 -0.035000 -0.025000
      vertex -0.250000 -0.035000 0.025000
    endloop
  endfacet
  facet normal -1.000000 0.000000 0.000000
    outer loop
      vertex -0.250000 0.035000 -0.025000
      vertex -0.250000 -0.035000 0.025000
      vertex -0.250000 0.035000 0.025000
    endloop
  endfacet
  facet normal 1.000000 0.000000 0.000000
    outer loop
      vertex 0.250000 -0.035000 -0.025000
      vertex 0.250000 0.035000 -0.025000
      vertex 0.250000 0.035000 0.025000
    endloop
  endfacet
  facet normal 1.000000 0.000000 0.000000
    outer loop
      vertex 0.250000 -0.035000 -0.025000
      vertex 0.250000 0.035000 0.025000
      vertex 0.250000 -0.035000 0.025000
    endloop
  endfacet
endsolid bogie_arm_left
