solid drill_assembly
  facet normal 0.000000 0.000000 1.000000
    outer loop
      vertex 0.000000 0.000000 0.500000
      vertex 0.030000 0.000000 0.500000
      vertex 0.027716 0.011481 0.500000
    endloop
  endfacet
  facet normal 0.000000 0.000000 -1.000000
    outer loop
      vertex 0.000000 0.000000 -0.500000
      vertex 0.027716 0.011481 -0.500000
      vertex 0.030000 0.000000 -0.500000
    endloop
  endfacet
  facet normal -0.980785 -0.195090 0.000000
    outer loop
      vertex 0.030000 0.000000 -0.500000
      vertex 0.030000 0.000000 0.500000
      vertex 0.027716 0.011481 0.500000
    endloop
  endfacet
  facet normal -0.980785 -0.195090 0.000000
    outer loop
      vertex 0.030000 0.000000 -0.500000
      vertex 0.027716 0.011481 0.500000
      vertex 0.027716 0.011481 -0.500000
    endloop
  endfacet
  facet normal 0.000000 0.000000 1.000000
    outer loop
      vertex 0.000000 0.000000 0.500000
      vertex 0.027716 0.011481 0.500000
      vertex 0.021213 0.021213 0.500000
    endloop
  endfacet
  facet normal 0.000000 0.000000 -1.000000
    outer loop
      vertex 0.000000 0.000000 -0.500000
      vertex 0.021213 0.021213 -0.500000
      vertex 0.027716 0.011481 -0.500000
    endloop
  endfacet
  facet normal -0.831470 -0.555570 0.000000
    outer loop
      vertex 0.027716 0.011481 -0.500000
      vertex 0.027716 0.011481 0.500000
      vertex 0.021213 0.021213 0.500000
    endloop
  endfacet
  facet normal -0.831470 -0.555570 0.000000
    outer loop
      vertex 0.027716 0.011481 -0.500000
      vertex 0.021213 0.021213 0.500000
      vertex 0.021213 0.021213 -0.500000
    endloop
  endfacet
  facet normal 0.000000 0.000000 1.000000
    outer loop
      vertex 0.000000 0.000000 0.500000
      vertex 0.021213 0.021213 0.500000
      vertex 0.011481 0.027716 0.500000
    endloop
  endfacet
  facet normal 0.000000 0.000000 -1.000000
    outer loop
      vertex 0.000000 0.000000 -0.500000
      vertex 0.011481 0.027716 -0.500000
      vertex 0.021213 0.021213 -0.500000
    endloop
  endfacet
  facet normal -0.555570 -0.831470 0.000000
    outer loop
      vertex 0.021213 0.021213 -0.500000
      vertex 0.021213 0.021213 0.500000
      vertex 0.011481 0.027716 0.500000
    endloop
  endfacet
  facet normal -0.555570 -0.831470 0.000000
    outer loop
      vertex 0.021213 0.021213 -0.500000
      vertex 0.011481 0.027716 0.500000
      vertex 0.011481 0.027716 -0.500000
    endloop
  endfacet
  facet normal 0.000000 0.000000 1.000000
    outer loop
      vertex 0.000000 0.000000 0.500000
      vertex 0.011481 0.027716 0.500000
      vertex 0.000000 0.030000 0.500000
    endloop
  endfacet
  facet normal 0.000000 0.000000 -1.000000
    outer loop
      vertex 0.000000 0.000000 -0.500000
      vertex 0.000000 0.030000 -0.500000
      vertex 0.011481 0.027716 -0.500000
    endloop
  endfacet
  facet normal -0.195090 -0.980785 0.000000
    outer loop
      vertex 0.011481 0.027716 -0.500000
      vertex 0.011481 0.027716 0.500000
      vertex 0.000000 0.030000 0.500000
    endloop
  endfacet
  facet normal -0.195090 -0.980785 0.000000
    outer loop
      vertex 0.011481 0.027716 -0.500000
      vertex 0.000000 0.030000 0.500000
      vertex 0.000000 0.030000 -0.500000
    endloop
  endfacet
  facet normal 0.000000 -0.000000 1.000000
    outer loop
      vertex 0.000000 0.000000 0.500000
      vertex 0.000000 0.030000 0.500000
      vertex -0.011481 0.027716 0.500000
    endloop
  endfacet
  facet normal 0.000000 0.000000 -1.000000
    outer loop
      vertex 0.000000 0.000000 -0.500000
      vertex -0.011481 0.027716 -0.500000
      vertex 0.000000 0.030000 -0.500000
    endloop
  endfacet
  facet normal 0.195090 -0.980785 0.000000
    outer loop
      vertex 0.000000 0.030000 -0.500000
      vertex 0.000000 0.030000 0.500000
      vertex -0.011481 0.027716 0.500000
    endloop
  endfacet
  facet normal 0.195090 -0.980785 0.000000
    outer loop
      vertex 0.000000 0.030000 -0.500000
      vertex -0.011481 0.027716 0.500000
      vertex -0.011481 0.027716 -0.500000
    endloop
  endfacet
  facet normal 0.000000 0.000000 1.000000
    outer loop
      vertex 0.000000 0.000000 0.500000
      vertex -0.011481 0.027716 0.500000
      vertex -0.021213 0.021213 0.500000
    endloop
  endfacet
  facet normal 0.000000 0.000000 -1.000000
    outer loop
      vertex 0.000000 0.000000 -0.500000
      vertex -0.021213 0.021213 -0.500000
      vertex -0.011481 0.027716 -0.500000
    endloop
  endfacet
  facet normal 0.555570 -0.831470 0.000000
    outer loop
      vertex -0.011481 0.027716 -0.500000
      vertex -0.011481 0.027716 0.500000
      vertex -0.021213 0.021213 0.500000
    endloop
  endfacet
  facet normal 0.555570 -0.831470 0.000000
    outer loop
      vertex -0.011481 0.027716 -0.500000
      vertex -0.021213 0.021213 0.500000
      vertex -0.021213 0.021213 -0.500000
    endloop
  endfacet
  facet normal 0.000000 0.000000 1.000000
    outer loop
      vertex 0.000000 0.000000 0.500000
      vertex -0.021213 0.021213 0.500000
      vertex -0.027716 0.011481 0.500000
    endloop
  endfacet
  facet normal 0.000000 0.000000 -1.000000
    outer loop
      vertex 0.000000 0.000000 -0.500000
      vertex -0.027716 0.011481 -0.500000
      vertex -0.021213 0.021213 -0.500000
    endloop
  endfacet
  facet normal 0.831470 -0.555570 0.000000
    outer loop
      vertex -0.021213 0.021213 -0.500000
      vertex -0.021213 0.021213 0.500000
      vertex -0.027716 0.011481 0.500000
    endloop
  endfacet
  facet normal 0.831470 -0.555570 0.000000
    outer loop
      vertex -0.021213 0.021213 -0.500000
      vertex -0.027716 0.011481 0.500000
      vertex -0.027716 0.011481 -0.500000
    endloop
  endfacet
  facet normal 0.000000 0.000000 1.000000
    outer loop
      vertex 0.000000 0.000000 0.500000
      vertex -0.027716 0.011481 0.500000
      vertex -0.030000 0.000000 0.500000
    endloop
  endfacet
  facet normal 0.000000 0.000000 -1.000000
    outer loop
      vertex 0.000000 0.000000 -0.500000
      vertex -0.030000 0.000000 -0.500000
      vertex -0.027716 0.011481 -0.500000
    endloop
  endfacet
  facet normal 0.980785 -0.195090 0.000000
    outer loop
      vertex -0.027716 0.011481 -0.500000
      vertex -0.027716 0.011481 0.500000
      vertex -0.030000 0.000000 0.500000
    endloop
  endfacet
  facet normal 0.980785 -0.195090 0.000000
    outer loop
      vertex -0.027716 0.011481 -0.500000
      vertex -0.030000 0.000000 0.500000
      vertex -0.030000 0.000000 -0.500000
    endloop
  endfacet
  facet normal 0.000000 0.000000 1.000000
    outer loop
      vertex 0.000000 0.000000 0.500000
      vertex -0.030000 0.000000 0.500000
      vertex -0.027716 -0.011481 0.500000
    endloop
  endfacet
  facet normal -0.000000 0.000000 -1.000000
    outer loop
      vertex 0.000000 0.000000 -0.500000
      vertex -0.027716 -0.011481 -0.500000
      vertex -0.030000 0.000000 -0.500000
    endloop
  endfacet
  facet normal 0.980785 0.195090 -0.000000
    outer loop
      vertex -0.030000 0.000000 -0.500000
      vertex -0.030000 0.000000 0.500000
      vertex -0.027716 -0.011481 0.500000
    endloop
  endfacet
  facet normal 0.980785 0.195090 0.000000
    outer loop
      vertex -0.030000 0.000000 -0.500000
      vertex -0.027716 -0.011481 0.500000
      vertex -0.027716 -0.011481 -0.500000
    endloop
  endfacet
  facet normal 0.000000 0.000000 1.000000
    outer loop
      vertex 0.000000 0.000000 0.500000
      vertex -0.027716 -0.011481 0.500000
      vertex -0.021213 -0.021213 0.500000
    endloop
  endfacet
  facet normal 0.000000 0.000000 -1.000000
    outer loop
      vertex 0.000000 0.000000 -0.500000
      vertex -0.021213 -0.021213 -0.500000
      vertex -0.027716 -0.011481 -0.500000
    endloop
  endfacet
  facet normal 0.831470 0.555570 -0.000000
    outer loop
      vertex -0.027716 -0.011481 -0.500000
      vertex -0.027716 -0.011481 0.500000
      vertex -0.021213 -0.021213 0.500000
    endloop
  endfacet
  facet normal 0.831470 0.555570 0.000000
    outer loop
      vertex -0.027716 -0.011481 -0.500000
      vertex -0.021213 -0.021213 0.500000
      vertex -0.021213 -0.021213 -0.500000
    endloop
  endfacet
  facet normal 0.000000 0.000000 1.000000
    outer loop
      vertex 0.000000 0.000000 0.500000
      vertex -0.021213 -0.021213 0.500000
      vertex -0.011481 -0.027716 0.500000
    endloop
  endfacet
  facet normal 0.000000 0.000000 -1.000000
    outer loop
      vertex 0.000000 0.000000 -0.500000
      vertex -0.011481 -0.027716 -0.500000
      vertex -0.021213 -0.021213 -0.500000
    endloop
  endfacet
  facet normal 0.555570 0.831470 -0.000000
    outer loop
      vertex -0.021213 -0.021213 -0.500000
      vertex -0.021213 -0.021213 0.500000
      vertex -0.011481 -0.027716 0.500000
    endloop
  endfacet
  facet normal 0.555570 0.831470 0.000000
    outer loop
      vertex -0.021213 -0.021213 -0.500000
      vertex -0.011481 -0.027716 0.500000
      vertex -0.011481 -0.027716 -0.500000
    endloop
  endfacet
  facet normal 0.000000 0.000000 1.000000
    outer loop
      vertex 0.000000 0.000000 0.500000
      vertex -0.011481 -0.027716 0.500000
      vertex -0.000000 -0.030000 0.500000
    endloop
  endfacet
  facet normal 0.000000 0.000000 -1.000000
    outer loop
      vertex 0.000000 0.000000 -0.500000
      vertex -0.000000 -0.030000 -0.500000
      vertex -0.011481 -0.027716 -0.500000
    endloop
  endfacet
  facet normal 0.195090 0.980785 -0.000000
    outer loop
      vertex -0.011481 -0.027716 -0.500000
      vertex -0.011481 -0.027716 0.500000
      vertex -0.000000 -0.030000 0.500000
    endloop
  endfacet
  facet normal 0.195090 0.980785 0.000000
    outer loop
      vertex -0.011481 -0.027716 -0.500000
      vertex -0.000000 -0.030000 0.500000
      vertex -0.000000 -0.030000 -0.500000
    endloop
  endfacet
  facet normal 0.000000 0.000000 1.000000
    outer loop
      vertex 0.000000 0.000000 0.500000
      vertex -0.000000 -0.030000 0.500000
      vertex 0.011481 -0.027716 0.500000
    endloop
  endfacet
  facet normal 0.000000 -0.000000 -1.000000
    outer loop
      vertex 0.000000 0.000000 -0.500000
      vertex 0.011481 -0.027716 -0.500000
      vertex -0.000000 -0.030000 -0.500000
    endloop
  endfacet
  facet normal -0.195090 0.980785 0.000000
    outer loop
      vertex -0.000000 -0.030000 -0.500000
      vertex -0.000000 -0.030000 0.500000
      vertex 0.011481 -0.027716 0.500000
    endloop
  endfacet
  facet normal -0.195090 0.980785 0.000000
    outer loop
      vertex -0.000000 -0.030000 -0.500000
      vertex 0.011481 -0.027716 0.500000
      vertex 0.011481 -0.027716 -0.500000
    endloop
  endfacet
  facet normal 0.000000 0.000000 1.000000
    outer loop
      vertex 0.000000 0.000000 0.500000
      vertex 0.011481 -0.027716 0.500000
      vertex 0.021213 -0.021213 0.500000
    endloop
  endfacet
  facet normal 0.000000 0.000000 -1.000000
    outer loop
      vertex 0.000000 0.000000 -0.500000
      vertex 0.021213 -0.021213 -0.500000
      vertex 0.011481 -0.027716 -0.500000
    endloop
  endfacet
  facet normal -0.555570 0.831470 0.000000
    outer loop
      vertex 0.011481 -0.027716 -0.500000
      vertex 0.011481 -0.027716 0.500000
      vertex 0.021213 -0.021213 0.500000
    endloop
  endfacet
  facet normal -0.555570 0.831470 0.000000
    outer loop
      vertex 0.011481 -0.027716 -0.500000
      vertex 0.021213 -0.021213 0.500000
      vertex 0.021213 -0.021213 -0.500000
    endloop
  endfacet
  facet normal 0.000000 0.000000 1.000000
    outer loop
      vertex 0.000000 0.000000 0.500000
      vertex 0.021213 -0.021213 0.500000
      vertex 0.027716 -0.011481 0.500000
    endloop
  endfacet
  facet normal 0.000000 0.000000 -1.000000
    outer loop
      vertex 0.000000 0.000000 -0.500000
      vertex 0.027716 -0.011481 -0.500000
      vertex 0.021213 -0.021213 -0.500000
    endloop
  endfacet
  facet normal -0.831470 0.555570 0.000000
    outer loop
      vertex 0.021213 -0.021213 -0.500000
      vertex 0.021213 -0.021213 0.500000
      vertex 0.027716 -0.011481 0.500000
    endloop
  endfacet
  facet normal -0.831470 0.555570 0.000000
    outer loop
      vertex 0.021213 -0.021213 -0.500000
      vertex 0.027716 -0.011481 0.500000
      vertex 0.027716 -0.011481 -0.500000
    endloop
  endfacet
  facet normal -0.000000 0.000000 1.000000
    outer loop
      vertex 0.000000 0.000000 0.500000
      vertex 0.027716 -0.011481 0.500000
      vertex 0.030000 0.000000 0.500000
    endloop
  endfacet
  facet normal 0.000000 0.000000 -1.000000
    outer loop
      vertex 0.000000 0.000000 -0.500000
      vertex 0.030000 0.000000 -0.500000
      vertex 0.027716 -0.011481 -0.500000
    endloop
  endfacet
  facet normal -0.980785 0.195090 0.000000
    outer loop
      vertex 0.027716 -0.011481 -0.500000
      vertex 0.027716 -0.011481 0.500000
      vertex 0.030000 0.000000 0.500000
    endloop
  endfacet
  facet normal -0.980785 0.195090 0.000000
    outer loop
      vertex 0.027716 -0.011481 -0.500000
      vertex 0.030000 0.000000 0.500000
      vertex 0.030000 0.000000 -0.500000
    endloop
  endfacet
endsolid drill_assembly
