solid electronics_bay
  facet normal 0.000000 0.000000 -1.000000
    outer loop
      vertex -0.300000 -0.200000 -0.150000
      vertex 0.300000 0.200000 -0.150000
      vertex 0.300000 -0.200000 -0.150000
    endloop
  endfacet
  facet normal 0.000000 0.000000 -1.000000
    outer loop
      vertex -0.300000 -0.200000 -0.150000
      vertex -0.300000 0.200000 -0.150000
      vertex 0.300000 0.200000 -0.150000
    endloop
  endfacet
  facet normal 0.000000 0.000000 1.000000
    outer loop
      vertex -0.300000 -0.200000 0.150000
      vertex 0.300000 -0.200000 0.150000
      vertex 0.300000 0.200000 0.150000
    endloop
  endfacet
  facet normal 0.000000 0.000000 1.000000
    outer loop
      vertex -0.300000 -0.200000 0.150000
      vertex 0.300000 0.200000 0.150000
      vertex -0.300000 0.200000 0.150000
    endloop
  endfacet
  facet normal 0.000000 -1.000000 0.000000
    outer loop
      vertex -0.300000 -0.200000 -0.150000
      vertex 0.300000 -0.200000 -0.150000
      vertex 0.300000 -0.200000 0.150000
    endloop
  endfacet
  facet normal 0.000000 -1.000000 0.000000
    outer loop
      vertex -0.300000 -0.200000 -0.150000
      vertex 0.300000 -0.200000 0.150000
      vertex -0.300000 -0.200000 0.150000
    endloop
  endfacet
  facet normal 0.000000 1.000000 0.000000
    outer loop
      vertex 0.300000 0.200000 -0.150000
      vertex -0.300000 0.200000 -0.150000
      vertex -0.300000 0.200000 0.150000
    endloop
  endfacet
  facet normal 0.000000 1.000000 -0.000000
    outer loop
      vertex 0.300000 0.200000 -0.150000
      vertex -0.300000 0.200000 0.150000
      vertex 0.300000 0.200000 0.150000
    endloop
  endfacet
  facet normal -1.000000 0.000000 0.000000
    outer loop
      vertex -0.300000 0.200000 -0.150000
      vertex -0.300000 -0.200000 -0.150000
      vertex -0.300000 -0.200000 0.150000
    endloop
  endfacet
  facet normal -1.000000 0.000000 0.000000
    outer loop
      vertex -0.300000 0.200000 -0.150000
      vertex -0.300000 -0.200000 0.150000
      vertex -0.300000 0.200000 0.150000
    endloop
  endfacet
  facet normal 1.000000 0.000000 0.000000
    outer loop
      vertex 0.300000 -0.200000 -0.150000
      vertex 0.300000 0.200000 -0.150000
      vertex 0.300000 0.200000 0.150000
    endloop
  endfacet
  facet normal 1.000000 0.000000 0.000000
    outer loop
      vertex 0.300000 -0.200000 -0.150000
      vertex 0.300000 0.200000 0.150000
      vertex 0.300000 -0.200000 0.150000
    endloop
  endfacet
endsolid electronics_bay
