solid hga_dish
  facet normal 0.000000 0.000000 1.000000
    outer loop
      vertex 0.000000 0.000000 0.010000
      vertex 0.250000 0.000000 0.010000
      vertex 0.230970 0.095671 0.010000
    endloop
  endfacet
  facet normal 0.000000 0.000000 -1.000000
    outer loop
      vertex 0.000000 0.000000 -0.010000
      vertex 0.230970 0.095671 -0.010000
      vertex 0.250000 0.000000 -0.010000
    endloop
  endfacet
  facet normal -0.980785 -0.195090 0.000000
    outer loop
      vertex 0.250000 0.000000 -0.010000
      vertex 0.250000 0.000000 0.010000
      vertex 0.230970 0.095671 0.010000
    endloop
  endfacet
  facet normal -0.980785 -0.195090 0.000000
    outer loop
      vertex 0.250000 0.000000 -0.010000
      vertex 0.230970 0.095671 0.010000
      vertex 0.230970 0.095671 -0.010000
    endloop
  endfacet
  facet normal 0.000000 0.000000 1.000000
    outer loop
      vertex 0.000000 0.000000 0.010000
      vertex 0.230970 0.095671 0.010000
      vertex 0.176777 0.176777 0.010000
    endloop
  endfacet
  facet normal 0.000000 0.000000 -1.000000
    outer loop
      vertex 0.000000 0.000000 -0.010000
      vertex 0.176777 0.176777 -0.010000
      vertex 0.230970 0.095671 -0.010000
    endloop
  endfacet
  facet normal -0.831470 -0.555570 0.000000
    outer loop
      vertex 0.230970 0.095671 -0.010000
      vertex 0.230970 0.095671 0.010000
      vertex 0.176777 0.176777 0.010000
    endloop
  endfacet
  facet normal -0.831470 -0.555570 0.000000
    outer loop
      vertex 0.230970 0.095671 -0.010000
      vertex 0.176777 0.176777 0.010000
      vertex 0.176777 0.176777 -0.010000
    endloop
  endfacet
  facet normal 0.000000 0.000000 1.000000
    outer loop
      vertex 0.000000 0.000000 0.010000
      vertex 0.176777 0.176777 0.010000
      vertex 0.095671 0.230970 0.010000
    endloop
  endfacet
  facet normal 0.000000 0.000000 -1.000000
    outer loop
      vertex 0.000000 0.000000 -0.010000
      vertex 0.095671 0.230970 -0.010000
      vertex 0.176777 0.176777 -0.010000
    endloop
  endfacet
  facet normal -0.555570 -0.831470 0.000000
    outer loop
      vertex 0.176777 0.176777 -0.010000
      vertex 0.176777 0.176777 0.010000
      vertex 0.095671 0.230970 0.010000
    endloop
  endfacet
  facet normal -0.555570 -0.831470 0.000000
    outer loop
      vertex 0.176777 0.176777 -0.010000
      vertex 0.095671 0.230970 0.010000
      vertex 0.095671 0.230970 -0.010000
    endloop
  endfacet
  facet normal 0.000000 0.000000 1.000000
    outer loop
      vertex 0.000000 0.000000 0.010000
      vertex 0.095671 0.230970 0.010000
      vertex 0.000000 0.250000 0.010000
    endloop
  endfacet
  facet normal 0.000000 0.000000 -1.000000
    outer loop
      vertex 0.000000 0.000000 -0.010000
      vertex 0.000000 0.250000 -0.010000
      vertex 0.095671 0.230970 -0.010000
    endloop
  endfacet
  facet normal -0.195090 -0.980785 0.000000
    outer loop
      vertex 0.095671 0.230970 -0.010000
      vertex 0.095671 0.230970 0.010000
      vertex 0.000000 0.250000 0.010000
    endloop
  endfacet
  facet normal -0.195090 -0.980785 0.000000
    outer loop
      vertex 0.095671 0.230970 -0.010000
      vertex 0.000000 0.250000 0.010000
      vertex 0.000000 0.250000 -0.010000
    endloop
  endfacet
  facet normal 0.000000 -0.000000 1.000000
    outer loop
      vertex 0.000000 0.000000 0.010000
      vertex 0.000000 0.250000 0.010000
      vertex -0.095671 0.230970 0.010000
    endloop
  endfacet
  facet normal 0.000000 0.000000 -1.000000
    outer loop
      vertex 0.000000 0.000000 -0.010000
      vertex -0.095671 0.230970 -0.010000
      vertex 0.000000 0.250000 -0.010000
    endloop
  endfacet
  facet normal 0.195090 -0.980785 0.000000
    outer loop
      vertex 0.000000 0.250000 -0.010000
      vertex 0.000000 0.250000 0.010000
      vertex -0.095671 0.230970 0.010000
    endloop
  endfacet
  facet normal 0.195090 -0.980785 0.000000
    outer loop
      vertex 0.000000 0.250000 -0.010000
      vertex -0.095671 0.230970 0.010000
      vertex -0.095671 0.230970 -0.010000
    endloop
  endfacet
  facet normal 0.000000 0.000000 1.000000
    outer loop
      vertex 0.000000 0.000000 0.010000
      vertex -0.095671 0.230970 0.010000
      vertex -0.176777 0.176777 0.010000
    endloop
  endfacet
  facet normal 0.000000 0.000000 -1.000000
    outer loop
      vertex 0.000000 0.000000 -0.010000
      vertex -0.176777 0.176777 -0.010000
      vertex -0.095671 0.230970 -0.010000
    endloop
  endfacet
  facet normal 0.555570 -0.831470 0.000000
    outer loop
      vertex -0.095671 0.230970 -0.010000
      vertex -0.095671 0.230970 0.010000
      vertex -0.176777 0.176777 0.010000
    endloop
  endfacet
  facet normal 0.555570 -0.831470 0.000000
    outer loop
      vertex -0.095671 0.230970 -0.010000
      vertex -0.176777 0.176777 0.010000
      vertex -0.176777 0.176777 -0.010000
    endloop
  endfacet
  facet normal 0.000000 0.000000 1.000000
    outer loop
      vertex 0.000000 0.000000 0.010000
      vertex -0.176777 0.176777 0.010000
      vertex -0.230970 0.095671 0.010000
    endloop
  endfacet
  facet normal 0.000000 0.000000 -1.000000
    outer loop
      vertex 0.000000 0.000000 -0.010000
      vertex -0.230970 0.095671 -0.010000
      vertex -0.176777 0.176777 -0.010000
    endloop
  endfacet
  facet normal 0.831470 -0.555570 0.000000
    outer loop
      vertex -0.176777 0.176777 -0.010000
      vertex -0.176777 0.176777 0.010000
      vertex -0.230970 0.095671 0.010000
    endloop
  endfacet
  facet normal 0.831470 -0.555570 0.000000
    outer loop
      vertex -0.176777 0.176777 -0.010000
      vertex -0.230970 0.095671 0.010000
      vertex -0.230970 0.095671 -0.010000
    endloop
  endfacet
  facet normal 0.000000 0.000000 1.000000
    outer loop
      vertex 0.000000 0.000000 0.010000
      vertex -0.230970 0.095671 0.010000
      vertex -0.250000 0.000000 0.010000
    endloop
  endfacet
  facet normal 0.000000 0.000000 -1.000000
    outer loop
      vertex 0.000000 0.000000 -0.010000
      vertex -0.250000 0.000000 -0.010000
      vertex -0.230970 0.095671 -0.010000
    endloop
  endfacet
  facet normal 0.980785 -0.195090 0.000000
    outer loop
      vertex -0.230970 0.095671 -0.010000
      vertex -0.230970 0.095671 0.010000
      vertex -0.250000 0.000000 0.010000
    endloop
  endfacet
  facet normal 0.980785 -0.195090 0.000000
    outer loop
      vertex -0.230970 0.095671 -0.010000
      vertex -0.250000 0.000000 0.010000
      vertex -0.250000 0.000000 -0.010000
    endloop
  endfacet
  facet normal 0.000000 0.000000 1.000000
    outer loop
      vertex 0.000000 0.000000 0.010000
      vertex -0.250000 0.000000 0.010000
      vertex -0.230970 -0.095671 0.010000
    endloop
  endfacet
  facet normal -0.000000 0.000000 -1.000000
    outer loop
      vertex 0.000000 0.000000 -0.010000
      vertex -0.230970 -0.095671 -0.010000
      vertex -0.250000 0.000000 -0.010000
    endloop
  endfacet
  facet normal 0.980785 0.195090 -0.000000
    outer loop
      vertex -0.250000 0.000000 -0.010000
      vertex -0.250000 0.000000 0.010000
      vertex -0.230970 -0.095671 0.010000
    endloop
  endfacet
  facet normal 0.980785 0.195090 0.000000
    outer loop
      vertex -0.250000 0.000000 -0.010000
      vertex -0.230970 -0.095671 0.010000
      vertex -0.230970 -0.095671 -0.010000
    endloop
  endfacet
  facet normal 0.000000 0.000000 1.000000
    outer loop
      vertex 0.000000 0.000000 0.010000
      vertex -0.230970 -0.095671 0.010000
      vertex -0.176777 -0.176777 0.010000
    endloop
  endfacet
  facet normal 0.000000 0.000000 -1.000000
    outer loop
      vertex 0.000000 0.000000 -0.010000
      vertex -0.176777 -0.176777 -0.010000
      vertex -0.230970 -0.095671 -0.010000
    endloop
  endfacet
  facet normal 0.831470 0.555570 -0.000000
    outer loop
      vertex -0.230970 -0.095671 -0.010000
      vertex -0.230970 -0.095671 0.010000
      vertex -0.176777 -0.176777 0.010000
    endloop
  endfacet
  facet normal 0.831470 0.555570 0.000000
    outer loop
      vertex -0.230970 -0.095671 -0.010000
      vertex -0.176777 -0.176777 0.010000
      vertex -0.176777 -0.176777 -0.010000
    endloop
  endfacet
  facet normal 0.000000 0.000000 1.000000
    outer loop
      vertex 0.000000 0.000000 0.010000
      vertex -0.176777 -0.176777 0.010000
      vertex -0.095671 -0.230970 0.010000
    endloop
  endfacet
  facet normal 0.000000 0.000000 -1.000000
    outer loop
      vertex 0.000000 0.000000 -0.010000
      vertex -0.095671 -0.230970 -0.010000
      vertex -0.176777 -0.176777 -0.010000
    endloop
  endfacet
  facet normal 0.555570 0.831470 -0.000000
    outer loop
      vertex -0.176777 -0.176777 -0.010000
      vertex -0.176777 -0.176777 0.010000
      vertex -0.095671 -0.230970 0.010000
    endloop
  endfacet
  facet normal 0.555570 0.831470 0.000000
    outer loop
      vertex -0.176777 -0.176777 -0.010000
      vertex -0.095671 -0.230970 0.010000
      vertex -0.095671 -0.230970 -0.010000
    endloop
  endfacet
  facet normal 0.000000 0.000000 1.000000
    outer loop
      vertex 0.000000 0.000000 0.010000
      vertex -0.095671 -0.230970 0.010000
      vertex -0.000000 -0.250000 0.010000
    endloop
  endfacet
  facet normal 0.000000 0.000000 -1.000000
    outer loop
      vertex 0.000000 0.000000 -0.010000
      vertex -0.000000 -0.250000 -0.010000
      vertex -0.095671 -0.230970 -0.010000
    endloop
  endfacet
  facet normal 0.195090 0.980785 -0.000000
    outer loop
      vertex -0.095671 -0.230970 -0.010000
      vertex -0.095671 -0.230970 0.010000
      vertex -0.000000 -0.250000 0.010000
    endloop
  endfacet
  facet normal 0.195090 0.980785 0.000000
    outer loop
      vertex -0.095671 -0.230970 -0.010000
      vertex -0.000000 -0.250000 0.010000
      vertex -0.000000 -0.250000 -0.010000
    endloop
  endfacet
  facet normal 0.000000 0.000000 1.000000
    outer loop
      vertex 0.000000 0.000000 0.010000
      vertex -0.000000 -0.250000 0.010000
      vertex 0.095671 -0.230970 0.010000
    endloop
  endfacet
  facet normal 0.000000 -0.000000 -1.000000
    outer loop
      vertex 0.000000 0.000000 -0.010000
      vertex 0.095671 -0.230970 -0.010000
      vertex -0.000000 -0.250000 -0.010000
    endloop
  endfacet
  facet normal -0.195090 0.980785 0.000000
    outer loop
      vertex -0.000000 -0.250000 -0.010000
      vertex -0.000000 -0.250000 0.010000
      vertex 0.095671 -0.230970 0.010000
    endloop
  endfacet
  facet normal -0.195090 0.980785 0.000000
    outer loop
      vertex -0.000000 -0.250000 -0.010000
      vertex 0.095671 -0.230970 0.010000
      vertex 0.095671 -0.230970 -0.010000
    endloop
  endfacet
  facet normal 0.000000 0.000000 1.000000
    outer loop
      vertex 0.000000 0.000000 0.010000
      vertex 0.095671 -0.230970 0.010000
      vertex 0.176777 -0.176777 0.010000
    endloop
  endfacet
  facet normal 0.000000 0.000000 -1.000000
    outer loop
      vertex 0.000000 0.000000 -0.010000
      vertex 0.176777 -0.176777 -0.010000
      vertex 0.095671 -0.230970 -0.010000
    endloop
  endfacet
  facet normal -0.555570 0.831470 0.000000
    outer loop
      vertex 0.095671 -0.230970 -0.010000
      vertex 0.095671 -0.230970 0.010000
      vertex 0.176777 -0.176777 0.010000
    endloop
  endfacet
  facet normal -0.555570 0.831470 0.000000
    outer loop
      vertex 0.095671 -0.230970 -0.010000
      vertex 0.176777 -0.176777 0.010000
      vertex 0.176777 -0.176777 -0.010000
    endloop
  endfacet
  facet normal 0.000000 0.000000 1.000000
    outer loop
      vertex 0.000000 0.000000 0.010000
      vertex 0.176777 -0.176777 0.010000
      vertex 0.230970 -0.095671 0.010000
    endloop
  endfacet
  facet normal 0.000000 0.000000 -1.000000
    outer loop
      vertex 0.000000 0.000000 -0.010000
      vertex 0.230970 -0.095671 -0.010000
      vertex 0.176777 -0.176777 -0.010000
    endloop
  endfacet
  facet normal -0.831470 0.555570 0.000000
    outer loop
      vertex 0.176777 -0.176777 -0.010000
      vertex 0.176777 -0.176777 0.010000
      vertex 0.230970 -0.095671 0.010000
    endloop
  endfacet
  facet normal -0.831470 0.555570 0.000000
    outer loop
      vertex 0.176777 -0.176777 -0.010000
      vertex 0.230970 -0.095671 0.010000
      vertex 0.230970 -0.095671 -0.010000
    endloop
  endfacet
  facet normal -0.000000 0.000000 1.000000
    outer loop
      vertex 0.000000 0.000000 0.010000
      vertex 0.230970 -0.095671 0.010000
      vertex 0.250000 0.000000 0.010000
    endloop
  endfacet
  facet normal 0.000000 0.000000 -1.000000
    outer loop
      vertex 0.000000 0.000000 -0.010000
      vertex 0.250000 0.000000 -0.010000
      vertex 0.230970 -0.095671 -0.010000
    endloop
  endfacet
  facet normal -0.980785 0.195090 0.000000
    outer loop
      vertex 0.230970 -0.095671 -0.010000
      vertex 0.230970 -0.095671 0.010000
      vertex 0.250000 0.000000 0.010000
    endloop
  endfacet
  facet normal -0.980785 0.195090 0.000000
    outer loop
      vertex 0.230970 -0.095671 -0.010000
      vertex 0.250000 0.000000 0.010000
      vertex 0.250000 0.000000 -0.010000
    endloop
  endfacet
endsolid hga_dish
