solid mast_assembly
  facet normal 0.000000 0.000000 1.000000
    outer loop
      vertex 0.000000 0.000000 0.600000
      vertex 0.040000 0.000000 0.600000
      vertex 0.036955 0.015307 0.600000
    endloop
  endfacet
  facet normal 0.000000 0.000000 -1.000000
    outer loop
      vertex 0.000000 0.000000 -0.600000
      vertex 0.036955 0.015307 -0.600000
      vertex 0.040000 0.000000 -0.600000
    endloop
  endfacet
  facet normal -0.980785 -0.195090 0.000000
    outer loop
      vertex 0.040000 0.000000 -0.600000
      vertex 0.040000 0.000000 0.600000
      vertex 0.036955 0.015307 0.600000
    endloop
  endfacet
  facet normal -0.980785 -0.195090 0.000000
    outer loop
      vertex 0.040000 0.000000 -0.600000
      vertex 0.036955 0.015307 0.600000
      vertex 0.036955 0.015307 -0.600000
    endloop
  endfacet
  facet normal 0.000000 0.000000 1.000000
    outer loop
      vertex 0.000000 0.000000 0.600000
      vertex 0.036955 0.015307 0.600000
      vertex 0.028284 0.028284 0.600000
    endloop
  endfacet
  facet normal 0.000000 0.000000 -1.000000
    outer loop
      vertex 0.000000 0.000000 -0.600000
      vertex 0.028284 0.028284 -0.600000
      vertex 0.036955 0.015307 -0.600000
    endloop
  endfacet
  facet normal -0.831470 -0.555570 0.000000
    outer loop
      vertex 0.036955 0.015307 -0.600000
      vertex 0.036955 0.015307 0.600000
      vertex 0.028284 0.028284 0.600000
    endloop
  endfacet
  facet normal -0.831470 -0.555570 0.000000
    outer loop
      vertex 0.036955 0.015307 -0.600000
      vertex 0.028284 0.028284 0.600000
      vertex 0.028284 0.028284 -0.600000
    endloop
  endfacet
  facet normal 0.000000 0.000000 1.000000
    outer loop
      vertex 0.000000 0.000000 0.600000
      vertex 0.028284 0.028284 0.600000
      vertex 0.015307 0.036955 0.600000
    endloop
  endfacet
  facet normal 0.000000 0.000000 -1.000000
    outer loop
      vertex 0.000000 0.000000 -0.600000
      vertex 0.015307 0.036955 -0.600000
      vertex 0.028284 0.028284 -0.600000
    endloop
  endfacet
  facet normal -0.555570 -0.831470 0.000000
    outer loop
      vertex 0.028284 0.028284 -0.600000
      vertex 0.028284 0.028284 0.600000
      vertex 0.015307 0.036955 0.600000
    endloop
  endfacet
  facet normal -0.555570 -0.831470 0.000000
    outer loop
      vertex 0.028284 0.028284 -0.600000
      vertex 0.015307 0.036955 0.600000
      vertex 0.015307 0.036955 -0.600000
    endloop
  endfacet
  facet normal 0.000000 0.000000 1.000000
    outer loop
      vertex 0.000000 0.000000 0.600000
      vertex 0.015307 0.036955 0.600000
      vertex 0.000000 0.040000 0.600000
    endloop
  endfacet
  facet normal 0.000000 0.000000 -1.000000
    outer loop
      vertex 0.000000 0.000000 -0.600000
      vertex 0.000000 0.040000 -0.600000
      vertex 0.015307 0.036955 -0.600000
    endloop
  endfacet
  facet normal -0.195090 -0.980785 0.000000
    outer loop
      vertex 0.015307 0.036955 -0.600000
      vertex 0.015307 0.036955 0.600000
      vertex 0.000000 0.040000 0.600000
    endloop
  endfacet
  facet normal -0.195090 -0.980785 0.000000
    outer loop
      vertex 0.015307 0.036955 -0.600000
      vertex 0.000000 0.040000 0.600000
      vertex 0.000000 0.040000 -0.600000
    endloop
  endfacet
  facet normal 0.000000 -0.000000 1.000000
    outer loop
      vertex 0.000000 0.000000 0.600000
      vertex 0.000000 0.040000 0.600000
      vertex -0.015307 0.036955 0.600000
    endloop
  endfacet
  facet normal 0.000000 0.000000 -1.000000
    outer loop
      vertex 0.000000 0.000000 -0.600000
      vertex -0.015307 0.036955 -0.600000
      vertex 0.000000 0.040000 -0.600000
    endloop
  endfacet
  facet normal 0.195090 -0.980785 0.000000
    outer loop
      vertex 0.000000 0.040000 -0.600000
      vertex 0.000000 0.040000 0.600000
      vertex -0.015307 0.036955 0.600000
    endloop
  endfacet
  facet normal 0.195090 -0.980785 0.000000
    outer loop
      vertex 0.000000 0.040000 -0.600000
      vertex -0.015307 0.036955 0.600000
      vertex -0.015307 0.036955 -0.600000
    endloop
  endfacet
  facet normal 0.000000 0.000000 1.000000
    outer loop
      vertex 0.000000 0.000000 0.600000
      vertex -0.015307 0.036955 0.600000
      vertex -0.028284 0.028284 0.600000
    endloop
  endfacet
  facet normal 0.000000 0.000000 -1.000000
    outer loop
      vertex 0.000000 0.000000 -0.600000
      vertex -0.028284 0.028284 -0.600000
      vertex -0.015307 0.036955 -0.600000
    endloop
  endfacet
  facet normal 0.555570 -0.831470 0.000000
    outer loop
      vertex -0.015307 0.036955 -0.600000
      vertex -0.015307 0.036955 0.600000
      vertex -0.028284 0.028284 0.600000
    endloop
  endfacet
  facet normal 0.555570 -0.831470 0.000000
    outer loop
      vertex -0.015307 0.036955 -0.600000
      vertex -0.028284 0.028284 0.600000
      vertex -0.028284 0.028284 -0.600000
    endloop
  endfacet
  facet normal 0.000000 0.000000 1.000000
    outer loop
      vertex 0.000000 0.000000 0.600000
      vertex -0.028284 0.028284 0.600000
      vertex -0.036955 0.015307 0.600000
    endloop
  endfacet
  facet normal 0.000000 0.000000 -1.000000
    outer loop
      vertex 0.000000 0.000000 -0.600000
      vertex -0.036955 0.015307 -0.600000
      vertex -0.028284 0.028284 -0.600000
    endloop
  endfacet
  facet normal 0.831470 -0.555570 0.000000
    outer loop
      vertex -0.028284 0.028284 -0.600000
      vertex -0.028284 0.028284 0.600000
      vertex -0.036955 0.015307 0.600000
    endloop
  endfacet
  facet normal 0.831470 -0.555570 0.000000
    outer loop
      vertex -0.028284 0.028284 -0.600000
      vertex -0.036955 0.015307 0.600000
      vertex -0.036955 0.015307 -0.600000
    endloop
  endfacet
  facet normal 0.000000 0.000000 1.000000
    outer loop
      vertex 0.000000 0.000000 0.600000
      vertex -0.036955 0.015307 0.600000
      vertex -0.040000 0.000000 0.600000
    endloop
  endfacet
  facet normal 0.000000 0.000000 -1.000000
    outer loop
      vertex 0.000000 0.000000 -0.600000
      vertex -0.040000 0.000000 -0.600000
      vertex -0.036955 0.015307 -0.600000
    endloop
  endfacet
  facet normal 0.980785 -0.195090 0.000000
    outer loop
      vertex -0.036955 0.015307 -0.600000
      vertex -0.036955 0.015307 0.600000
      vertex -0.040000 0.000000 0.600000
    endloop
  endfacet
  facet normal 0.980785 -0.195090 0.000000
    outer loop
      vertex -0.036955 0.015307 -0.600000
      vertex -0.040000 0.000000 0.600000
      vertex -0.040000 0.000000 -0.600000
    endloop
  endfacet
  facet normal 0.000000 0.000000 1.000000
    outer loop
      vertex 0.000000 0.000000 0.600000
      vertex -0.040000 0.000000 0.600000
      vertex -0.036955 -0.015307 0.600000
    endloop
  endfacet
  facet normal -0.000000 0.000000 -1.000000
    outer loop
      vertex 0.000000 0.000000 -0.600000
      vertex -0.036955 -0.015307 -0.600000
      vertex -0.040000 0.000000 -0.600000
    endloop
  endfacet
  facet normal 0.980785 0.195090 -0.000000
    outer loop
      vertex -0.040000 0.000000 -0.600000
      vertex -0.040000 0.000000 0.600000
      vertex -0.036955 -0.015307 0.600000
    endloop
  endfacet
  facet normal 0.980785 0.195090 0.000000
    outer loop
      vertex -0.040000 0.000000 -0.600000
      vertex -0.036955 -0.015307 0.600000
      vertex -0.036955 -0.015307 -0.600000
    endloop
  endfacet
  facet normal 0.000000 0.000000 1.000000
    outer loop
      vertex 0.000000 0.000000 0.600000
      vertex -0.036955 -0.015307 0.600000
      vertex -0.028284 -0.028284 0.600000
    endloop
  endfacet
  facet normal 0.000000 0.000000 -1.000000
    outer loop
      vertex 0.000000 0.000000 -0.600000
      vertex -0.028284 -0.028284 -0.600000
      vertex -0.036955 -0.015307 -0.600000
    endloop
  endfacet
  facet normal 0.831470 0.555570 -0.000000
    outer loop
      vertex -0.036955 -0.015307 -0.600000
      vertex -0.036955 -0.015307 0.600000
      vertex -0.028284 -0.028284 0.600000
    endloop
  endfacet
  facet normal 0.831470 0.555570 0.000000
    outer loop
      vertex -0.036955 -0.015307 -0.600000
      vertex -0.028284 -0.028284 0.600000
      vertex -0.028284 -0.028284 -0.600000
    endloop
  endfacet
  facet normal 0.000000 0.000000 1.000000
    outer loop
      vertex 0.000000 0.000000 0.600000
      vertex -0.028284 -0.028284 0.600000
      vertex -0.015307 -0.036955 0.600000
    endloop
  endfacet
  facet normal 0.000000 0.000000 -1.000000
    outer loop
      vertex 0.000000 0.000000 -0.600000
      vertex -0.015307 -0.036955 -0.600000
      vertex -0.028284 -0.028284 -0.600000
    endloop
  endfacet
  facet normal 0.555570 0.831470 -0.000000
    outer loop
      vertex -0.028284 -0.028284 -0.600000
      vertex -0.028284 -0.028284 0.600000
      vertex -0.015307 -0.036955 0.600000
    endloop
  endfacet
  facet normal 0.555570 0.831470 0.000000
    outer loop
      vertex -0.028284 -0.028284 -0.600000
      vertex -0.015307 -0.036955 0.600000
      vertex -0.015307 -0.036955 -0.600000
    endloop
  endfacet
  facet normal 0.000000 0.000000 1.000000
    outer loop
      vertex 0.000000 0.000000 0.600000
      vertex -0.015307 -0.036955 0.600000
      vertex -0.000000 -0.040000 0.600000
    endloop
  endfacet
  facet normal 0.000000 0.000000 -1.000000
    outer loop
      vertex 0.000000 0.000000 -0.600000
      vertex -0.000000 -0.040000 -0.600000
      vertex -0.015307 -0.036955 -0.600000
    endloop
  endfacet
  facet normal 0.195090 0.980785 -0.000000
    outer loop
      vertex -0.015307 -0.036955 -0.600000
      vertex -0.015307 -0.036955 0.600000
      vertex -0.000000 -0.040000 0.600000
    endloop
  endfacet
  facet normal 0.195090 0.980785 0.000000
    outer loop
      vertex -0.015307 -0.036955 -0.600000
      vertex -0.000000 -0.040000 0.600000
      vertex -0.000000 -0.040000 -0.600000
    endloop
  endfacet
  facet normal 0.000000 0.000000 1.000000
    outer loop
      vertex 0.000000 0.000000 0.600000
      vertex -0.000000 -0.040000 0.600000
      vertex 0.015307 -0.036955 0.600000
    endloop
  endfacet
  facet normal 0.000000 -0.000000 -1.000000
    outer loop
      vertex 0.000000 0.000000 -0.600000
      vertex 0.015307 -0.036955 -0.600000
      vertex -0.000000 -0.040000 -0.600000
    endloop
  endfacet
  facet normal -0.195090 0.980785 0.000000
    outer loop
      vertex -0.000000 -0.040000 -0.600000
      vertex -0.000000 -0.040000 0.600000
      vertex 0.015307 -0.036955 0.600000
    endloop
  endfacet
  facet normal -0.195090 0.980785 0.000000
    outer loop
      vertex -0.000000 -0.040000 -0.600000
      vertex 0.015307 -0.036955 0.600000
      vertex 0.015307 -0.036955 -0.600000
    endloop
  endfacet
  facet normal 0.000000 0.000000 1.000000
    outer loop
      vertex 0.000000 0.000000 0.600000
      vertex 0.015307 -0.036955 0.600000
      vertex 0.028284 -0.028284 0.600000
    endloop
  endfacet
  facet normal 0.000000 0.000000 -1.000000
    outer loop
      vertex 0.000000 0.000000 -0.600000
      vertex 0.028284 -0.028284 -0.600000
      vertex 0.015307 -0.036955 -0.600000
    endloop
  endfacet
  facet normal -0.555570 0.831470 0.000000
    outer loop
      vertex 0.015307 -0.036955 -0.600000
      vertex 0.015307 -0.036955 0.600000
      vertex 0.028284 -0.028284 0.600000
    endloop
  endfacet
  facet normal -0.555570 0.831470 0.000000
    outer loop
      vertex 0.015307 -0.036955 -0.600000
      vertex 0.028284 -0.028284 0.600000
      vertex 0.028284 -0.028284 -0.600000
    endloop
  endfacet
  facet normal 0.000000 0.000000 1.000000
    outer loop
      vertex 0.000000 0.000000 0.600000
      vertex 0.028284 -0.028284 0.600000
      vertex 0.036955 -0.015307 0.600000
    endloop
  endfacet
  facet normal 0.000000 0.000000 -1.000000
    outer loop
      vertex 0.000000 0.000000 -0.600000
      vertex 0.036955 -0.015307 -0.600000
      vertex 0.028284 -0.028284 -0.600000
    endloop
  endfacet
  facet normal -0.831470 0.555570 0.000000
    outer loop
      vertex 0.028284 -0.028284 -0.600000
      vertex 0.028284 -0.028284 0.600000
      vertex 0.036955 -0.015307 0.600000
    endloop
  endfacet
  facet normal -0.831470 0.555570 0.000000
    outer loop
      vertex 0.028284 -0.028284 -0.600000
      vertex 0.036955 -0.015307 0.600000
      vertex 0.036955 -0.015307 -0.600000
    endloop
  endfacet
  facet normal -0.000000 0.000000 1.000000
    outer loop
      vertex 0.000000 0.000000 0.600000
      vertex 0.036955 -0.015307 0.600000
      vertex 0.040000 0.000000 0.600000
    endloop
  endfacet
  facet normal 0.000000 0.000000 -1.000000
    outer loop
      vertex 0.000000 0.000000 -0.600000
      vertex 0.040000 0.000000 -0.600000
      vertex 0.036955 -0.015307 -0.600000
    endloop
  endfacet
  facet normal -0.980785 0.195090 0.000000
    outer loop
      vertex 0.036955 -0.015307 -0.600000
      vertex 0.036955 -0.015307 0.600000
      vertex 0.040000 0.000000 0.600000
    endloop
  endfacet
  facet normal -0.980785 0.195090 0.000000
    outer loop
      vertex 0.036955 -0.015307 -0.600000
      vertex 0.040000 0.000000 0.600000
      vertex 0.040000 0.000000 -0.600000
    endloop
  endfacet
endsolid mast_assembly
