solid nav_cam_assembly
  facet normal 0.000000 0.000000 -1.000000
    outer loop
      vertex -0.075000 -0.060000 -0.050000
      vertex 0.075000 0.060000 -0.050000
      vertex 0.075000 -0.060000 -0.050000
    endloop
  endfacet
  facet normal 0.000000 0.000000 -1.000000
    outer loop
      vertex -0.075000 -0.060000 -0.050000
      vertex -0.075000 0.060000 -0.050000
      vertex 0.075000 0.060000 -0.050000
    endloop
  endfacet
  facet normal 0.000000 0.000000 1.000000
    outer loop
      vertex -0.075000 -0.060000 0.050000
      vertex 0.075000 -0.060000 0.050000
      vertex 0.075000 0.060000 0.050000
    endloop
  endfacet
  facet normal 0.000000 0.000000 1.000000
    outer loop
      vertex -0.075000 -0.060000 0.050000
      vertex 0.075000 0.060000 0.050000
      vertex -0.075000 0.060000 0.050000
    endloop
  endfacet
  facet normal 0.000000 -1.000000 0.000000
    outer loop
      vertex -0.075000 -0.060000 -0.050000
      vertex 0.075000 -0.060000 -0.050000
      vertex 0.075000 -0.060000 0.050000
    endloop
  endfacet
  facet normal 0.000000 -1.000000 0.000000
    outer loop
      vertex -0.075000 -0.060000 -0.050000
      vertex 0.075000 -0.060000 0.050000
      vertex -0.075000 -0.060000 0.050000
    endloop
  endfacet
  facet normal 0.000000 1.000000 0.000000
    outer loop
      vertex 0.075000 0.060000 -0.050000
      vertex -0.075000 0.060000 -0.050000
      vertex -0.075000 0.060000 0.050000
    endloop
  endfacet
  facet normal 0.000000 1.000000 -0.000000
    outer loop
      vertex 0.075000 0.060000 -0.050000
      vertex -0.075000 0.060000 0.050000
      vertex 0.075000 0.060000 0.050000
    endloop
  endfacet
  facet normal -1.000000 0.000000 0.000000
    outer loop
      vertex -0.075000 0.060000 -0.050000
      vertex -0.075000 -0.060000 -0.050000
      vertex -0.075000 -0.060000 0.050000
    endloop
  endfacet
  facet normal -1.000000 0.000000 0.000000
    outer loop
      vertex -0.075000 0.060000 -0.050000
      vertex -0.075000 -0.060000 0.050000
      vertex -0.075000 0.060000 0.050000
    endloop
  endfacet
  facet normal 1.000000 0.000000 0.000000
    outer loop
      vertex 0.075000 -0.060000 -0.050000
      vertex 0.075000 0.060000 -0.050000
      vertex 0.075000 0.060000 0.050000
    endloop
  endfacet
  facet normal 1.000000 0.000000 0.000000
    outer loop
      vertex 0.075000 -0.060000 -0.050000
      vertex 0.075000 0.060000 0.050000
      vertex 0.075000 -0.060000 0.050000
    endloop
  endfacet
endsolid nav_cam_assembly
