solid rocker_arm_right
  facet normal 0.000000 0.000000 -1.000000
    outer loop
      vertex -0.475000 -0.040000 -0.030000
      vertex 0.475000 0.040000 -0.030000
      vertex 0.475000 -0.040000 -0.030000
    endloop
  endfacet
  facet normal 0.000000 0.000000 -1.000000
    outer loop
      vertex -0.475000 -0.040000 -0.030000
      vertex -0.475000 0.040000 -0.030000
      vertex 0.475000 0.040000 -0.030000
    endloop
  endfacet
  facet normal 0.000000 0.000000 1.000000
    outer loop
      vertex -0.475000 -0.040000 0.030000
      vertex 0.475000 -0.040000 0.030000
      vertex 0.475000 0.040000 0.030000
    endloop
  endfacet
  facet normal 0.000000 0.000000 1.000000
    outer loop
      vertex -0.475000 -0.040000 0.030000
      vertex 0.475000 0.040000 0.030000
      vertex -0.475000 0.040000 0.030000
    endloop
  endfacet
  facet normal 0.000000 -1.000000 0.000000
    outer loop
      vertex -0.475000 -0.040000 -0.030000
      vertex 0.475000 -0.040000 -0.030000
      vertex 0.475000 -0.040000 0.030000
    endloop
  endfacet
  facet normal 0.000000 -1.000000 0.000000
    outer loop
      vertex -0.475000 -0.040000 -0.030000
      vertex 0.475000 -0.040000 0.030000
      vertex -0.475000 -0.040000 0.030000
    endloop
  endfacet
  facet normal 0.000000 1.000000 0.000000
    outer loop
      vertex 0.475000 0.040000 -0.030000
      vertex -0.475000 0.040000 -0.030000
      vertex -0.475000 0.040000 0.030000
    endloop
  endfacet
  facet normal 0.000000 1.000000 -0.000000
    outer loop
      vertex 0.475000 0.040000 -0.030000
      vertex -0.475000 0.040000 0.030000
      vertex 0.475000 0.040000 0.030000
    endloop
  endfacet
  facet normal -1.000000 0.000000 0.000000
    outer loop
      vertex -0.475000 0.040000 -0.030000
      vertex -0.475000 -0.040000 -0.030000
      vertex -0.475000 -0.040000 0.030000
    endloop
  endfacet
  facet normal -1.000000 0.000000 0.000000
    outer loop
      vertex -0.475000 0.040000 -0.030000
      vertex -0.475000 -0.040000 0.030000
      vertex -0.475000 0.040000 0.030000
    endloop
  endfacet
  facet normal 1.000000 0.000000 0.000000
    outer loop
      vertex 0.475000 -0.040000 -0.030000
      vertex 0.475000 0.040000 -0.030000
      vertex 0.475000 0.040000 0.030000
    endloop
  endfacet
  facet normal 1.000000 0.000000 0.000000
    outer loop
      vertex 0.475000 -0.040000 -0.030000
      vertex 0.475000 0.040000 0.030000
      vertex 0.475000 -0.040000 0.030000
    endloop
  endfacet
endsolid rocker_arm_right
